# Blender 5.0.0
# www.blender.org
mtllib lipan_aileron_left.mtl
o aileron_(L)
v -4.376472 3.463476 4.985999
v -4.612824 1.653368 4.933315
v -4.612824 3.463476 4.933315
v -4.376472 1.653368 4.985999
v -4.376472 1.653368 4.985999
v -4.376472 3.463476 4.985999
v -4.612824 1.653368 4.933315
v -4.612824 3.463476 4.933315
v -4.225373 3.463476 5.017658
v -4.225373 1.653368 5.017658
v -4.225373 1.653368 5.017658
v -4.225373 3.463476 5.017658
v -4.248060 1.653368 5.123465
v -4.376472 1.653368 4.985999
v -4.225373 1.653368 5.017658
v -5.327869 1.653368 4.789549
v -5.113764 1.653368 4.860237
v -4.889368 1.653368 4.931758
v -4.657135 1.653368 5.003316
v -4.419501 1.653368 5.074118
v -5.178803 1.653368 4.796617
v -5.529249 1.653368 4.720482
v -5.526484 1.653368 4.707591
v -4.877448 1.653368 4.870981
v -4.612824 1.653368 4.933315
v -4.376472 1.653368 4.985999
v -4.612824 1.653368 4.933315
v -5.327869 1.653368 4.789549
v -4.877448 1.653368 4.870981
v -5.178803 1.653368 4.796617
v -5.529249 1.653368 4.720482
v -5.526484 1.653368 4.707591
v -4.419501 1.653368 5.074118
v -4.248060 1.653368 5.123465
v -4.657135 1.653368 5.003316
v -4.889368 1.653368 4.931758
v -5.113764 1.653368 4.860237
v -4.225373 1.653368 5.017658
v -4.877448 1.653368 4.870981
v -4.877448 3.463476 4.870981
v -4.877448 1.653368 4.870981
v -4.877448 3.463476 4.870981
v -5.529249 3.463476 4.720482
v -5.178803 3.463476 4.796617
v -5.526484 3.463476 4.707591
v -5.327869 3.463476 4.789549
v -4.877448 3.463476 4.870981
v -4.612824 3.463476 4.933315
v -4.376472 3.463476 4.985999
v -4.248023 3.463476 5.123474
v -4.225373 3.463476 5.017658
v -5.113764 3.463476 4.860237
v -4.889368 3.463476 4.931758
v -4.657135 3.463476 5.003316
v -4.419501 3.463476 5.074118
v -4.419501 3.463476 5.074118
v -4.657135 3.463476 5.003316
v -4.248023 3.463476 5.123474
v -4.889368 3.463476 4.931758
v -5.113764 3.463476 4.860237
v -5.327869 3.463476 4.789549
v -4.376472 3.463476 4.985999
v -4.225373 3.463476 5.017658
v -4.612824 3.463476 4.933315
v -4.877448 3.463476 4.870981
v -5.178803 3.463476 4.796617
v -5.529249 3.463476 4.720482
v -5.526484 3.463476 4.707591
v -4.248060 1.653368 5.123465
v -4.419501 3.463476 5.074118
v -4.419501 1.653368 5.074118
v -4.248023 3.463476 5.123474
v -4.248023 1.653368 5.123474
v -4.248023 1.653368 5.123474
v -4.248060 1.653368 5.123465
v -4.248023 3.463476 5.123474
v -4.419501 3.463476 5.074118
v -4.419501 1.653368 5.074118
v -4.657135 3.463476 5.003316
v -4.657135 1.653368 5.003316
v -4.657135 3.463476 5.003316
v -4.657135 1.653368 5.003316
v -4.889368 3.463476 4.931758
v -4.889368 1.653368 4.931758
v -4.889368 3.463476 4.931758
v -4.889368 1.653368 4.931758
v -5.113764 3.463476 4.860237
v -5.113764 1.653368 4.860237
v -5.113764 3.463476 4.860237
v -5.113764 1.653368 4.860237
v -5.327869 3.463476 4.789549
v -5.327869 1.653368 4.789549
v -5.327869 3.463476 4.789549
v -5.327869 1.653368 4.789549
v -5.529249 3.463476 4.720482
v -5.529249 1.653368 4.720482
v -5.529249 3.463476 4.720482
v -5.529249 1.653368 4.720482
v -5.526484 1.653368 4.707591
v -5.526484 3.463476 4.707591
v -5.526484 3.463476 4.707591
v -5.526484 1.653368 4.707591
v -5.178803 3.463476 4.796617
v -5.178803 1.653368 4.796617
v -5.178803 1.653368 4.796617
v -5.178803 3.463476 4.796617
v -4.419501 4.257275 5.074118
v -4.657135 6.904558 5.003316
v -4.657135 4.257275 5.003316
v -4.419501 6.904558 5.074118
v -4.419501 6.904558 5.074118
v -4.419501 4.257275 5.074118
v -4.657135 6.904558 5.003316
v -4.657135 4.257275 5.003316
v -4.243574 4.257275 5.124752
v -4.243574 6.904558 5.124752
v -4.243574 6.904558 5.124752
v -4.243574 4.257275 5.124752
v -4.889368 6.904558 4.931758
v -4.889368 4.257275 4.931758
v -4.889368 6.904558 4.931758
v -4.889368 4.257275 4.931758
v -5.113764 6.904558 4.860237
v -5.113764 4.257275 4.860237
v -5.113764 6.904558 4.860237
v -5.113764 4.257275 4.860237
v -5.327869 6.904558 4.789549
v -5.327869 4.257275 4.789549
v -5.327869 6.904558 4.789549
v -5.327869 4.257275 4.789549
v -5.529249 6.904558 4.720482
v -5.529249 4.257275 4.720482
v -5.529249 6.904558 4.720482
v -5.529249 4.257275 4.720482
v -5.529249 6.904558 4.720482
v -5.526484 4.257275 4.707591
v -5.529249 4.257275 4.720482
v -5.526484 6.904558 4.707591
v -5.526484 6.904558 4.707591
v -5.529249 6.904558 4.720482
v -5.526484 4.257275 4.707591
v -5.529249 4.257275 4.720482
v -5.526484 6.904558 4.707591
v -5.178803 4.257275 4.796617
v -5.526484 4.257275 4.707591
v -5.178803 6.904558 4.796617
v -5.178803 6.904558 4.796617
v -5.526484 6.904558 4.707591
v -5.178803 4.257275 4.796617
v -5.526484 4.257275 4.707591
v -4.877448 4.257275 4.870981
v -4.877448 6.904558 4.870981
v -4.877448 6.904558 4.870981
v -4.877448 4.257275 4.870981
v -4.612824 4.257275 4.933315
v -4.612824 6.904558 4.933315
v -4.612824 6.904558 4.933315
v -4.612824 4.257275 4.933315
v -4.376472 4.257275 4.985999
v -4.376472 6.904558 4.985999
v -4.376472 6.904558 4.985999
v -4.376472 4.257275 4.985999
v -4.220850 4.257275 5.018605
v -4.220850 6.904558 5.018605
v -4.220850 6.904558 5.018605
v -4.220850 4.257275 5.018605
vn 0.2113 -0.0000 -0.9774
vn 0.2234 -0.0000 -0.9747
vn -0.2113 -0.0000 0.9774
vn -0.2234 -0.0000 0.9747
vn 0.2051 -0.0000 -0.9787
vn -0.2051 -0.0000 0.9787
vn -0.0000 -1.0000 -0.0000
vn -0.0000 -1.0000 0.0003
vn -0.0000 -1.0000 -0.0008
vn -0.0000 -1.0000 0.0002
vn -0.0000 1.0000 -0.0000
vn -0.0000 1.0000 0.0001
vn -0.0000 1.0000 0.0003
vn 0.2344 -0.0000 -0.9721
vn -0.2344 -0.0000 0.9721
vn -0.0000 1.0000 -0.0006
vn -0.0000 1.0000 0.0007
vn -0.0000 -1.0000 -0.0013
vn -0.0000 -1.0000 0.0012
vn -0.0000 -1.0000 -0.0003
vn -0.0000 -1.0000 0.0004
vn -0.2910 -0.0000 0.9567
vn -0.2811 -0.0000 0.9597
vn -0.2766 -0.0000 0.9610
vn -0.3058 -0.0000 0.9521
vn 0.3057 -0.0000 -0.9521
vn 0.2914 -0.0000 -0.9566
vn 0.2766 -0.0000 -0.9610
vn 0.2811 -0.0000 -0.9597
vn -0.2900 -0.0000 0.9570
vn 0.2900 -0.0000 -0.9570
vn -0.2991 -0.0000 0.9542
vn 0.2991 -0.0000 -0.9542
vn -0.3086 -0.0000 0.9512
vn 0.3086 -0.0000 -0.9512
vn -0.3190 -0.0000 0.9478
vn 0.3190 -0.0000 -0.9478
vn -0.8705 -0.0000 0.4921
vn 0.8705 -0.0000 -0.4921
vn -0.5265 -0.0000 -0.8502
vn 0.5265 -0.0000 0.8502
vn 0.2438 -0.0000 -0.9698
vn -0.2438 -0.0000 0.9698
vn -0.3244 -0.0000 0.9459
vn 0.3244 -0.0000 -0.9459
vn -0.9778 -0.0000 -0.2097
vn 0.9778 -0.0000 0.2097
vn 0.2481 -0.0000 -0.9687
vn -0.2481 -0.0000 0.9687
s 1
usemtl Color_004
f 1//1 2//2 3//2
f 2//2 1//1 4//1
f 5//3 6//3 7//4
f 8//4 7//4 6//3
f 9//5 4//1 1//1
f 4//1 9//5 10//5
f 11//6 12//6 5//3
f 6//3 5//3 12//6
f 13//7 14//7 15//7
f 14//7 13//7 16//7
f 16//7 13//7 17//8
f 17//8 13//7 18//9
f 18//9 13//7 19//7
f 19//7 13//7 20//10
f 21//7 22//7 23//7
f 22//7 21//7 16//7
f 16//7 21//7 24//7
f 16//7 24//7 25//10
f 16//7 25//10 14//7
f 26//11 27//12 28//11
f 27//12 29//11 28//11
f 29//11 30//11 28//11
f 28//11 30//11 31//11
f 32//11 31//11 30//11
f 33//11 34//11 35//13
f 35//13 34//11 36//11
f 36//11 34//11 37//11
f 37//11 34//11 28//11
f 28//11 34//11 26//11
f 38//11 26//11 34//11
f 3//2 39//14 40//14
f 39//14 3//2 2//2
f 7//4 8//4 41//15
f 42//15 41//15 8//4
f 43//11 44//11 45//11
f 44//11 43//11 46//11
f 44//11 46//11 47//11
f 47//11 46//11 48//11
f 48//11 46//11 49//11
f 49//11 50//11 51//11
f 50//11 49//11 46//11
f 50//11 46//11 52//11
f 50//11 52//11 53//16
f 50//11 53//16 54//17
f 50//11 54//17 55//11
f 56//7 57//18 58//7
f 57//18 59//19 58//7
f 59//19 60//7 58//7
f 60//7 61//7 58//7
f 61//7 62//7 58//7
f 63//7 58//7 62//7
f 62//7 61//7 64//20
f 64//20 61//7 65//21
f 65//21 61//7 66//7
f 61//7 67//7 66//7
f 68//7 66//7 67//7
f 69//22 70//23 71//23
f 70//23 69//22 72//24
f 72//24 69//22 73//25
f 74//26 75//27 76//28
f 76//28 75//27 77//29
f 78//29 77//29 75//27
f 71//23 79//30 80//30
f 79//30 71//23 70//23
f 77//29 78//29 81//31
f 82//31 81//31 78//29
f 80//30 83//32 84//32
f 83//32 80//30 79//30
f 81//31 82//31 85//33
f 86//33 85//33 82//31
f 84//32 87//34 88//34
f 87//34 84//32 83//32
f 85//33 86//33 89//35
f 90//35 89//35 86//33
f 88//34 91//36 92//36
f 91//36 88//34 87//34
f 89//35 90//35 93//37
f 94//37 93//37 90//35
f 92//36 95//38 96//38
f 95//38 92//36 91//36
f 93//37 94//37 97//39
f 98//39 97//39 94//37
f 95//38 99//40 96//38
f 99//40 95//38 100//40
f 101//41 97//39 102//41
f 98//39 102//41 97//39
f 103//42 99//40 100//40
f 99//40 103//42 104//42
f 105//43 106//43 102//41
f 101//41 102//41 106//43
f 40//14 104//42 103//42
f 104//42 40//14 39//14
f 41//15 42//15 105//43
f 106//43 105//43 42//15
f 107//23 108//30 109//30
f 108//30 107//23 110//23
f 111//29 112//29 113//31
f 114//31 113//31 112//29
f 115//24 110//23 107//23
f 110//23 115//24 116//24
f 117//28 118//28 111//29
f 112//29 111//29 118//28
f 109//30 119//32 120//32
f 119//32 109//30 108//30
f 113//31 114//31 121//33
f 122//33 121//33 114//31
f 120//32 123//34 124//34
f 123//34 120//32 119//32
f 121//33 122//33 125//35
f 126//35 125//35 122//33
f 124//34 127//36 128//36
f 127//36 124//34 123//34
f 125//35 126//35 129//37
f 130//37 129//37 126//35
f 128//36 131//44 132//44
f 131//44 128//36 127//36
f 129//37 130//37 133//45
f 134//45 133//45 130//37
f 135//46 136//46 137//46
f 136//46 135//46 138//46
f 139//47 140//47 141//47
f 142//47 141//47 140//47
f 143//48 144//42 145//48
f 144//42 143//48 146//42
f 147//43 148//49 149//43
f 150//49 149//43 148//49
f 146//42 151//14 144//42
f 151//14 146//42 152//14
f 153//15 147//43 154//15
f 149//43 154//15 147//43
f 152//14 155//2 151//14
f 155//2 152//14 156//2
f 157//4 153//15 158//4
f 154//15 158//4 153//15
f 156//2 159//1 155//2
f 159//1 156//2 160//1
f 161//3 157//4 162//3
f 158//4 162//3 157//4
f 160//1 163//5 159//1
f 163//5 160//1 164//5
f 165//6 161//3 166//6
f 162//3 166//6 161//3
